<svg fill="none" height="241" viewBox="0 0 978 241" width="978" xmlns="http://www.w3.org/2000/svg"><path d="m716.689 149.259c0 43.339-32.987 70.83-72.766 70.83-40.102 0-73.089-27.168-73.089-70.83 0-43.663 32.987-71.1537 73.089-71.1537 39.456 0 72.766 27.4907 72.766 71.1537zm-35.897 0c0-26.844-11.966-39.135-37.192-39.135-25.549 0-37.515 12.614-37.515 39.135 0 26.197 11.966 38.811 37.515 38.811 25.226 0 37.192-12.614 37.192-38.811zm104.782-37.194c-3.234 0-3.557.323-3.557 3.558v66.949c0 3.234.323 3.557 3.557 3.557h25.549c6.468 0 7.115.647 7.115 7.116v17.141c0 6.469-.647 7.115-7.115 7.115h-22.315c-25.225 0-42.366-16.818-42.366-42.368v-59.51c0-3.235-.323-3.558-3.557-3.558h-15.524c-6.468 0-7.114-.647-7.114-7.115v-17.1419c0-6.4685.646-7.1154 7.114-7.1154h15.524c3.234 0 3.557-.3235 3.557-3.5577v-30.0785c0-6.4685.647-7.1154 7.116-7.1154h21.344c6.468 0 7.115.6469 7.115 7.1154v30.0785c0 3.2342.323 3.5577 3.557 3.5577h29.107c6.468 0 7.115.6469 7.115 7.1154v17.1419c0 6.468-.647 7.115-7.115 7.115zm185.311-31.0489c6.468 0 7.115.6468 7.115 7.1153v122.2546c0 6.469-.647 7.115-7.115 7.115h-21.344c-6.468 0-7.116-.646-7.116-7.115v-15.848c0-2.587-1.616-2.911-2.91-.647-9.055 16.819-24.255 26.198-44.306 26.198-38.809 0-62.094-28.461-62.094-70.83 0-43.016 22.315-71.1537 60.476-71.1537 21.022 0 36.869 9.7027 46.247 27.1677 1.294 2.264 2.911 1.941 2.911-.647v-16.8179c0-6.4685.647-7.1154 7.115-7.1154h21.021zm-27.166 68.2429c0-26.844-11.966-39.135-37.838-39.135-24.902 0-36.868 12.614-36.868 39.135 0 26.197 11.966 38.811 36.868 38.811 25.872 0 37.838-12.614 37.838-38.811zm-377.736 67.919c5.174 0 6.144-1.94 2.91-5.822l-70.502-87.971c-4.851-5.822-4.851-6.145 0-11.967l69.856-82.7968c3.234-3.8811 2.587-6.1451-2.911-6.1451h-31.37c-7.762 0-6.792-.3234-11.966 5.4983l-58.537 70.1832c-2.91 3.5574-2.587 3.5574-7.114 3.5574h-13.584c-3.234 0-3.557-.323-3.557-3.5574v-68.5661c0-6.4685-.647-7.1154-7.115-7.1154h-25.225c-6.468 0-7.115.6469-7.115 7.1154v180.7945c0 6.469.647 7.115 7.115 7.115h25.549c6.468 0 7.114-.646 7.114-7.115l.324-69.86c0-3.234.323-3.557 3.558-3.557h13.906c4.851 0 4.204-.324 7.438 3.557l57.243 71.154c4.851 6.145 4.204 5.821 11.966 5.821h32.017z" fill="#2a2435"/><path d="m312.111 17.9481c-.324-2.9108-.647-6.1451-1.294-9.05593-1.294-8.73248-3.557-10.02612-11.319-5.49817l-153.941 88.9419 13.26-37.5173c5.821-16.8181 5.498-18.1118-10.673-25.874-.323-.3235-.646-.3235-.97-.6469-9.378-4.528-10.995-3.881-14.553 6.1451l-15.2 42.6921-18.434-40.4281c-8.4085-18.4353-10.0255-19.0821-29.1064-12.2902-8.0851 2.9109-8.7318 4.2045-5.1744 11.9667l20.3743 44.9562-45.2767-18.1118c-16.817-6.792-18.1104-6.4685-26.519 9.7027-.3234.9703-.9703 1.6171-1.2937 2.5874-3.55741 7.4388-3.23393 8.7325 4.5278 11.9667l43.3363 17.4645-43.3363 12.614c-17.463867 5.175-18.11091 5.822-15.20027 23.933 0 .647.32372 1.294.32372 1.941 1.61702 9.379 2.9104 10.35 12.28915 7.762l49.8044-14.23-29.4298 44.632c-9.3787 14.231-9.3787 15.201 3.2341 26.845.9702.97 1.9404 1.94 3.234 2.91 6.7915 5.822 8.0851 5.499 12.9362-1.617l30.7234-46.896 5.8211 58.54c1.617 17.141 2.2638 17.788 19.4041 19.082 1.617 0 3.558.323 5.498.323 7.762.323 8.732-.647 7.762-8.409l-5.821-58.54 40.425 48.19c9.702 11.644 9.702 11.644 23.609 6.146 2.587-.971 4.527-1.941 7.438-3.235 7.762-3.557 8.085-5.175 2.587-11.643l-43.336-51.748 82.792 26.844c12.289 3.881 11.319 4.205 20.697-4.528 3.235-2.911 5.498-5.175 8.086-7.762 6.468-6.792 5.821-9.379-3.234-12.29l-74.06-23.934 100.579-14.23c12.612-1.941 11.966-1.294 16.817-13.261 1.617-3.881 2.587-7.115 3.557-10.673 2.587-9.0557.97-10.9962-8.408-9.7025l-112.545 15.8475 119.013-68.8892c12.613-7.4388 12.289-7.1154 10.996-21.0227zm-195.337 118.0499c-7.115 3.881-15.846 1.617-19.7273-5.174-3.8809-7.116-1.6171-15.848 5.1743-19.729 6.792-3.882 15.847-1.618 19.728 5.174 4.204 6.792 1.94 15.848-5.175 19.729z" fill="#814fe6"/></svg>
