<svg width="32" height="25" viewBox="0 0 32 25" fill="none" xmlns="http://www.w3.org/2000/svg">
<path d="M31.9361 2.29935C31.9013 1.98639 31.8665 1.69082 31.8144 1.37786C31.6753 0.491162 31.4667 0.386848 30.6843 0.838892L15.28 9.74068L16.6014 5.98524C17.1925 4.29877 17.1577 4.17706 15.5408 3.39467C15.506 3.37729 15.4712 3.35991 15.4365 3.34253C14.4802 2.89048 14.3411 2.96003 13.976 3.95105L12.4634 8.21069L10.6031 4.17706C9.75115 2.31672 9.61205 2.26456 7.68217 2.96001H7.66478C6.84763 3.25558 6.79546 3.37729 7.16058 4.17706L9.21217 8.68012L4.67435 6.87194C2.98787 6.19387 2.86616 6.22866 2.01423 7.84559C1.96207 7.93252 1.92729 8.01945 1.87513 8.10638C1.51002 8.87138 1.54481 8.97568 2.32719 9.28864L6.67377 11.0447L2.34458 12.2965C0.605944 12.8007 0.553776 12.8876 0.814571 14.6784C0.831958 14.7479 0.83197 14.8175 0.849357 14.887C1.00583 15.8433 1.14492 15.9128 2.0664 15.652L7.05626 14.2264L4.10059 18.6772C3.14434 20.1029 3.16173 20.1899 4.43093 21.3547C4.53525 21.4417 4.63956 21.5286 4.74387 21.6329C5.40455 22.2067 5.56103 22.1893 6.04785 21.4591L9.14262 16.7821L9.71638 22.6413C9.89024 24.3626 9.94239 24.4147 11.6636 24.5365C11.8375 24.5538 12.0114 24.5538 12.2026 24.5712C12.9676 24.606 13.0719 24.5017 12.985 23.7367L12.4113 17.8601L16.4623 22.6935C17.4359 23.8584 17.4185 23.841 18.8268 23.3194C19.0702 23.2325 19.2788 23.1455 19.5744 23.0064C20.3394 22.6587 20.3742 22.4675 19.8352 21.8242L15.506 16.6431L23.7993 19.3379C25.0163 19.7378 24.9294 19.7552 25.8683 18.8859C26.1986 18.5903 26.4246 18.3643 26.668 18.1035C27.3113 17.4254 27.2418 17.1472 26.3377 16.8691L18.9311 14.4698L28.9978 13.0441C30.267 12.8702 30.1975 12.9224 30.6669 11.7227C30.8234 11.3402 30.9277 11.0273 31.032 10.6622C31.3102 9.77546 31.1189 9.54944 30.1974 9.68853L18.9311 11.2881L30.8581 4.40309C32.0926 3.65548 32.0752 3.69025 31.9361 2.29935ZM12.3939 14.122C11.6984 14.5219 10.8117 14.2785 10.4118 13.5831C10.0119 12.8876 10.2553 12.0009 10.9508 11.601C11.6463 11.2011 12.533 11.4445 12.9328 12.14C13.3327 12.8355 13.0893 13.7222 12.3939 14.122Z" fill="#814FE6"/>
</svg>
